<?xml version="1.0" encoding="iso-8859-1"?>
<!-- Uploaded to: SVG Repo, www.svgrepo.com, Generator: SVG Repo Mixer Tools -->
<!DOCTYPE svg PUBLIC "-//W3C//DTD SVG 1.1//EN" "http://www.w3.org/Graphics/SVG/1.1/DTD/svg11.dtd">
<svg fill="#ff745f" height="800px" width="800px" version="1.1" id="Capa_1" xmlns="http://www.w3.org/2000/svg" xmlns:xlink="http://www.w3.org/1999/xlink" 
	 viewBox="0 0 347.99 347.99" xml:space="preserve">
<g>
	<path d="M311.495,137.5c0-75.817-61.682-137.5-137.5-137.5s-137.5,61.683-137.5,137.5v49h0.259
		c-0.009,0.38-0.029,0.758-0.029,1.141c0,24.364,18.242,44.533,41.782,47.603c0.236,30.735,15.065,59.16,39.975,76.96
		c-0.006,0.21-0.031,0.418-0.031,0.629c0,5.477,2.132,10.624,6.004,14.496c13.324,13.323,31.028,20.661,49.851,20.661
		s36.527-7.338,49.851-20.661c3.873-3.872,6.005-9.02,6.005-14.496c0-0.36-0.034-0.714-0.052-1.071
		c24.535-17.826,39.139-46.08,39.374-76.519c23.54-3.069,41.782-23.239,41.782-47.603c0-0.382-0.02-0.76-0.029-1.141h0.259V137.5z
		 M49.725,187.641c0-19.311,15.71-35.021,35.021-35.021h35.167l-33.575,70.043h-1.593C65.436,222.662,49.725,206.951,49.725,187.641
		z M222.994,222.662l33.575-70.043h6.676c0.914,0,1.816,0.046,2.713,0.115l-33.519,69.928H222.994z M210.434,218.789
		c-3.518-2.987-5.761-7.434-5.761-12.4c0-16.142-13.132-29.273-29.273-29.273h-2.81c-16.141,0-29.273,13.132-29.273,29.273
		c0,8.974-7.3,16.273-16.273,16.273h-5.059l33.575-70.043h86.593L210.434,218.789z M107.568,222.662h-6.813l33.575-70.043h6.813
		L107.568,222.662z M214.965,318.136c-10.869,10.869-25.308,16.854-40.659,16.854s-29.79-5.985-40.659-16.854
		c-1.417-1.416-2.196-3.299-2.196-5.303c0-2.003,0.78-3.887,2.196-5.303s3.3-2.196,5.304-2.196c2.003,0,3.887,0.779,5.303,2.196
		c8.035,8.035,18.708,12.46,30.052,12.46s22.017-4.425,30.053-12.461c1.416-1.416,3.299-2.196,5.303-2.196s3.887,0.78,5.303,2.197
		c1.417,1.416,2.197,3.3,2.197,5.303C217.162,314.837,216.382,316.72,214.965,318.136z M225.035,299.305
		c-0.287-0.326-0.567-0.657-0.877-0.967c-3.872-3.872-9.02-6.005-14.496-6.005c-5.476,0-10.625,2.133-14.496,6.004
		c-5.58,5.58-12.988,8.653-20.86,8.653s-15.28-3.073-20.86-8.653c-3.872-3.871-9.02-6.003-14.495-6.003
		c-5.476,0-10.624,2.132-14.496,6.003c-0.403,0.403-0.776,0.829-1.141,1.259c-19.737-15.357-31.451-38.724-31.801-63.934h35.531
		c16.142,0,29.273-13.132,29.273-29.273c0-8.974,7.3-16.273,16.273-16.273h2.81c8.973,0,16.273,7.3,16.273,16.273
		c0,16.142,13.132,29.273,29.273,29.273h35.53C256.128,260.679,244.546,283.943,225.035,299.305z M263.244,222.662h-16.39
		l31.846-66.438c11.579,5.721,19.565,17.651,19.565,31.416C298.265,206.951,282.555,222.662,263.244,222.662z M263.244,139.619
		H84.747c-13.921,0-26.472,5.96-35.251,15.456V137.5c0-0.845,0.015-1.686,0.032-2.526l11.871,0.324
		c0.06,0.001,0.121,0.002,0.181,0.002c3.507,0,6.398-2.795,6.494-6.322c0.098-3.589-2.731-6.577-6.32-6.676l-11.293-0.309
		c0.479-3.841,1.139-7.625,1.962-11.351l9.646,0.266c0.061,0.001,0.121,0.002,0.182,0.002c3.507,0,6.397-2.794,6.494-6.321
		c0.099-3.589-2.73-6.578-6.319-6.676l-6.417-0.177c1.3-3.848,2.784-7.611,4.44-11.281l2.302,0.063
		c0.061,0.001,0.12,0.002,0.18,0.002c3.508,0,6.398-2.795,6.494-6.323c0.063-2.301-1.082-4.351-2.855-5.555
		C88.212,37.794,128.26,13,173.996,13c45.736,0,85.783,24.794,107.427,61.642c-1.773,1.204-2.917,3.253-2.855,5.555
		c0.096,3.528,2.986,6.323,6.494,6.323c0.06,0,0.12-0.001,0.18-0.002l2.301-0.063c1.656,3.67,3.14,7.434,4.44,11.281l-6.416,0.177
		c-3.589,0.098-6.418,3.087-6.319,6.676c0.097,3.527,2.987,6.321,6.494,6.321c0.061,0,0.121-0.001,0.182-0.002l9.645-0.266
		c0.822,3.725,1.482,7.51,1.962,11.351l-11.293,0.309c-3.589,0.099-6.418,3.087-6.32,6.676c0.096,3.528,2.986,6.322,6.494,6.322
		c0.06,0,0.121-0.001,0.181-0.002l11.871-0.324c0.017,0.841,0.032,1.682,0.032,2.526v17.575
		C289.716,145.579,277.165,139.619,263.244,139.619z"/>
	<path d="M214.911,28.859c-3.348-1.299-7.113,0.359-8.412,3.707c-1.299,3.347,0.36,7.112,3.707,8.412
		c23.417,9.092,42.466,27.581,52.262,50.726c1.049,2.479,3.456,3.969,5.989,3.969c0.845,0,1.704-0.166,2.531-0.516
		c3.306-1.399,4.852-5.214,3.452-8.52C263.282,60.275,241.585,39.216,214.911,28.859z"/>
</g>
</svg>